<svg width="502" height="283" xmlns="http://www.w3.org/2000/svg" xmlns:xlink="http://www.w3.org/1999/xlink" overflow="hidden"><defs><clipPath id="clip0"><path d="M511 332 1013 332 1013 615 511 615Z" fill-rule="evenodd" clip-rule="evenodd"/></clipPath></defs><g clip-path="url(#clip0)" transform="translate(-511 -332)"><path d="M875 519.5 942 495 1009 519.5 942 544Z" stroke="#FFFFFF" stroke-width="2" stroke-miterlimit="8" fill="#A5A5A5" fill-rule="evenodd"/><path d="M698 588.5 764.5 564 831 588.5 764.5 613Z" stroke="#FFFFFF" stroke-width="2" stroke-miterlimit="8" fill="#A5A5A5" fill-rule="evenodd"/><path d="M832 468.5 845.5 464 859 468.5 845.5 473Z" stroke="#FFFFFF" stroke-width="2" stroke-miterlimit="8" fill="#A5A5A5" fill-rule="evenodd"/><path d="M783 484.5 797 480 811 484.5 797 489Z" stroke="#FFFFFF" stroke-width="2" stroke-miterlimit="8" fill="#A5A5A5" fill-rule="evenodd"/><path d="M601 551 615 546 629 551 615 556Z" stroke="#FFFFFF" stroke-width="2" stroke-miterlimit="8" fill="#A5A5A5" fill-rule="evenodd"/><path d="M648 535 661.5 530 675 535 661.5 540Z" stroke="#FFFFFF" stroke-width="2" stroke-miterlimit="8" fill="#A5A5A5" fill-rule="evenodd"/><path d="M652 467.5 665.5 463 679 467.5 665.5 472Z" stroke="#FFFFFF" stroke-width="2" stroke-miterlimit="8" fill="#A5A5A5" fill-rule="evenodd"/><path d="M609 485 622.5 480 636 485 622.5 490Z" stroke="#FFFFFF" stroke-width="2" stroke-miterlimit="8" fill="#A5A5A5" fill-rule="evenodd"/><path d="M515 519.5 552.5 506 590 519.5 552.5 533Z" stroke="#FFFFFF" stroke-width="2" stroke-miterlimit="8" fill="#A5A5A5" fill-rule="evenodd"/><path d="M667 501 704.5 488 742 501 704.5 514Z" stroke="#FFFFFF" stroke-width="2" stroke-miterlimit="8" fill="#A5A5A5" fill-rule="evenodd"/><path d="M717 443.5 754.5 430 792 443.5 754.5 457Z" stroke="#FFFFFF" stroke-width="2" stroke-miterlimit="8" fill="#A5A5A5" fill-rule="evenodd"/><path d="M679 417.5 755 390 831 417.5 755 445Z" stroke="#FFFFFF" stroke-width="2" stroke-miterlimit="8" fill="#ED7D31" fill-rule="evenodd"/><path d="M762 388 838 361 914 388 838 415Z" stroke="#FFFFFF" stroke-width="2" stroke-miterlimit="8" fill="#ED7D31" fill-rule="evenodd"/><path d="M678 378 720.5 363 763 378 720.5 393Z" stroke="#FFFFFF" stroke-width="2" stroke-miterlimit="8" fill="#70AD47" fill-rule="evenodd"/><path d="M597 388.5 640 374 683 388.5 640 403Z" stroke="#FFFFFF" stroke-width="2" stroke-miterlimit="8" fill="#70AD47" fill-rule="evenodd"/><path d="M706 348.5 749 334 792 348.5 749 363Z" stroke="#FFFFFF" stroke-width="2" stroke-miterlimit="8" fill="#4472C4" fill-rule="evenodd"/><path d="M676 398 691.5 393 707 398 691.5 403Z" stroke="#FFFFFF" stroke-width="2" stroke-miterlimit="8" fill="#FFC000" fill-rule="evenodd"/><path d="M649 406.5 664.5 401 680 406.5 664.5 412Z" stroke="#FFFFFF" stroke-width="2" stroke-miterlimit="8" fill="#70AD47" fill-rule="evenodd"/><path d="M760 368 775.5 363 791 368 775.5 373Z" stroke="#FFFFFF" stroke-width="2" stroke-miterlimit="8" fill="#FFC000" fill-rule="evenodd"/><path d="M788 358.5 803.5 353 819 358.5 803.5 364Z" stroke="#FFFFFF" stroke-width="2" stroke-miterlimit="8" fill="#4472C4" fill-rule="evenodd"/><path d="M654 369 669.5 364 685 369 669.5 374Z" stroke="#FFFFFF" stroke-width="2" stroke-miterlimit="8" fill="#70AD47" fill-rule="evenodd"/><path d="M681 359 696.5 354 712 359 696.5 364Z" stroke="#FFFFFF" stroke-width="2" stroke-miterlimit="8" fill="#4472C4" fill-rule="evenodd"/></g></svg>